  0
SECTION
  2
HEADER
  9
$ACADVER
  1
AC1018
  9
$ACADMAINTVER
 70
     0
  9
$DWGCODEPAGE
  3
ANSI_1252
  9
$INSBASE
 10
0.0
 20
0.0
 30
0.0
  9
$EXTMIN
 10
230303.4589
 20
736754.8619
 30
0.0
  9
$EXTMAX
 10
230960.9378
 20
737225.0625
 30
0.0
  9
$LIMMIN
 10
0.0
 20
0.0
  9
$LIMMAX
 10
12.0
 20
9.0
  9
$ORTHOMODE
 70
     0
  9
$REGENMODE
 70
     1
  9
$FILLMODE
 70
     1
  9
$QTEXTMODE
 70
     0
  9
$MIRRTEXT
 70
     1
  9
$LTSCALE
 40
1.0
  9
$ATTMODE
 70
     1
  9
$TEXTSIZE
 40
0.2
  9
$TRACEWID
 40
0.05
  9
$TEXTSTYLE
  7
Standard
  9
$CLAYER
  8
0
  9
$CELTYPE
  6
ByLayer
  9
$CECOLOR
 62
   256
  9
$CELTSCALE
 40
1.0
  9
$DISPSILH
 70
     0
  9
$DIMSCALE
 40
1.0
  9
$DIMASZ
 40
0.18
  9
$DIMEXO
 40
0.0625
  9
$DIMDLI
 40
0.38
  9
$DIMRND
 40
0.0
  9
$DIMDLE
 40
0.0
  9
$DIMEXE
 40
0.18
  9
$DIMTP
 40
0.0
  9
$DIMTM
 40
0.0
  9
$DIMTXT
 40
0.18
  9
$DIMCEN
 40
0.09
  9
$DIMTSZ
 40
0.0
  9
$DIMTOL
 70
     0
  9
$DIMLIM
 70
     0
  9
$DIMTIH
 70
     1
  9
$DIMTOH
 70
     1
  9
$DIMSE1
 70
     0
  9
$DIMSE2
 70
     0
  9
$DIMTAD
 70
     0
  9
$DIMZIN
 70
     0
  9
$DIMBLK
  1

  9
$DIMASO
 70
     1
  9
$DIMSHO
 70
     1
  9
$DIMPOST
  1

  9
$DIMAPOST
  1

  9
$DIMALT
 70
     0
  9
$DIMALTD
 70
     2
  9
$DIMALTF
 40
25.4
  9
$DIMLFAC
 40
1.0
  9
$DIMTOFL
 70
     0
  9
$DIMTVP
 40
0.0
  9
$DIMTIX
 70
     0
  9
$DIMSOXD
 70
     0
  9
$DIMSAH
 70
     0
  9
$DIMBLK1
  1

  9
$DIMBLK2
  1

  9
$DIMSTYLE
  2
Standard
  9
$DIMCLRD
 70
     0
  9
$DIMCLRE
 70
     0
  9
$DIMCLRT
 70
     0
  9
$DIMTFAC
 40
1.0
  9
$DIMGAP
 40
0.09
  9
$DIMJUST
 70
     0
  9
$DIMSD1
 70
     0
  9
$DIMSD2
 70
     0
  9
$DIMTOLJ
 70
     1
  9
$DIMTZIN
 70
     0
  9
$DIMALTZ
 70
     0
  9
$DIMALTTZ
 70
     0
  9
$DIMUPT
 70
     0
  9
$DIMDEC
 70
     4
  9
$DIMTDEC
 70
     4
  9
$DIMALTU
 70
     2
  9
$DIMALTTD
 70
     2
  9
$DIMTXSTY
  7
Standard
  9
$DIMAUNIT
 70
     0
  9
$DIMADEC
 70
     0
  9
$DIMALTRND
 40
0.0
  9
$DIMAZIN
 70
     0
  9
$DIMDSEP
 70
    46
  9
$DIMATFIT
 70
     3
  9
$DIMFRAC
 70
     0
  9
$DIMLDRBLK
  1

  9
$DIMLUNIT
 70
     2
  9
$DIMLWD
 70
    -2
  9
$DIMLWE
 70
    -2
  9
$DIMTMOVE
 70
     0
  9
$LUNITS
 70
     2
  9
$LUPREC
 70
     4
  9
$SKETCHINC
 40
0.1
  9
$FILLETRAD
 40
0.5
  9
$AUNITS
 70
     0
  9
$AUPREC
 70
     0
  9
$MENU
  1
.
  9
$ELEVATION
 40
0.0
  9
$PELEVATION
 40
0.0
  9
$THICKNESS
 40
0.0
  9
$LIMCHECK
 70
     0
  9
$CHAMFERA
 40
0.5
  9
$CHAMFERB
 40
0.5
  9
$CHAMFERC
 40
1.0
  9
$CHAMFERD
 40
0.0
  9
$SKPOLY
 70
     0
  9
$TDCREATE
 40
2455343.56230316
  9
$TDUCREATE
 40
2455343.728969826
  9
$TDUPDATE
 40
2455343.562303171
  9
$TDUUPDATE
 40
2455343.728969838
  9
$TDINDWG
 40
0.0000000116
  9
$TDUSRTIMER
 40
0.0000000116
  9
$USRTIMER
 70
     1
  9
$ANGBASE
 50
0.0
  9
$ANGDIR
 70
     0
  9
$PDMODE
 70
     0
  9
$PDSIZE
 40
0.0
  9
$PLINEWID
 40
0.0
  9
$SPLFRAME
 70
     0
  9
$SPLINETYPE
 70
     6
  9
$SPLINESEGS
 70
     8
  9
$HANDSEED
  5
00020010
  9
$SURFTAB1
 70
     6
  9
$SURFTAB2
 70
     6
  9
$SURFTYPE
 70
     6
  9
$SURFU
 70
     6
  9
$SURFV
 70
     6
  9
$UCSBASE
  2

  9
$UCSNAME
  2

  9
$UCSORG
 10
0.0
 20
0.0
 30
0.0
  9
$UCSXDIR
 10
1.0
 20
0.0
 30
0.0
  9
$UCSYDIR
 10
0.0
 20
1.0
 30
0.0
  9
$UCSORTHOREF
  2

  9
$UCSORTHOVIEW
 70
     0
  9
$UCSORGTOP
 10
0.0
 20
0.0
 30
0.0
  9
$UCSORGBOTTOM
 10
0.0
 20
0.0
 30
0.0
  9
$UCSORGLEFT
 10
0.0
 20
0.0
 30
0.0
  9
$UCSORGRIGHT
 10
0.0
 20
0.0
 30
0.0
  9
$UCSORGFRONT
 10
0.0
 20
0.0
 30
0.0
  9
$UCSORGBACK
 10
0.0
 20
0.0
 30
0.0
  9
$PUCSBASE
  2

  9
$PUCSNAME
  2

  9
$PUCSORG
 10
0.0
 20
0.0
 30
0.0
  9
$PUCSXDIR
 10
1.0
 20
0.0
 30
0.0
  9
$PUCSYDIR
 10
0.0
 20
1.0
 30
0.0
  9
$PUCSORTHOREF
  2

  9
$PUCSORTHOVIEW
 70
     0
  9
$PUCSORGTOP
 10
0.0
 20
0.0
 30
0.0
  9
$PUCSORGBOTTOM
 10
0.0
 20
0.0
 30
0.0
  9
$PUCSORGLEFT
 10
0.0
 20
0.0
 30
0.0
  9
$PUCSORGRIGHT
 10
0.0
 20
0.0
 30
0.0
  9
$PUCSORGFRONT
 10
0.0
 20
0.0
 30
0.0
  9
$PUCSORGBACK
 10
0.0
 20
0.0
 30
0.0
  9
$USERI1
 70
     0
  9
$USERI2
 70
     0
  9
$USERI3
 70
     0
  9
$USERI4
 70
     0
  9
$USERI5
 70
     0
  9
$USERR1
 40
0.0
  9
$USERR2
 40
0.0
  9
$USERR3
 40
0.0
  9
$USERR4
 40
0.0
  9
$USERR5
 40
0.0
  9
$WORLDVIEW
 70
     1
  9
$SHADEDGE
 70
     3
  9
$SHADEDIF
 70
    70
  9
$TILEMODE
 70
     1
  9
$MAXACTVP
 70
    64
  9
$PINSBASE
 10
0.0
 20
0.0
 30
0.0
  9
$PLIMCHECK
 70
     0
  9
$PEXTMIN
 10
1.000000000000000E+20
 20
1.000000000000000E+20
 30
1.000000000000000E+20
  9
$PEXTMAX
 10
-1.000000000000000E+20
 20
-1.000000000000000E+20
 30
-1.000000000000000E+20
  9
$PLIMMIN
 10
0.0
 20
0.0
  9
$PLIMMAX
 10
12.0
 20
9.0
  9
$UNITMODE
 70
     0
  9
$VISRETAIN
 70
     1
  9
$PLINEGEN
 70
     0
  9
$PSLTSCALE
 70
     1
  9
$TREEDEPTH
 70
  3020
  9
$CMLSTYLE
  2
Standard
  9
$CMLJUST
 70
     0
  9
$CMLSCALE
 40
1.0
  9
$PROXYGRAPHICS
 70
     1
  9
$MEASUREMENT
 70
     0
  9
$CELWEIGHT
370
    -1
  9
$ENDCAPS
280
     0
  9
$JOINSTYLE
280
     0
  9
$LWDISPLAY
290
     0
  9
$INSUNITS
 70
     1
  9
$HYPERLINKBASE
  1

  9
$STYLESHEET
  1

  9
$XEDIT
290
     1
  9
$CEPSNTYPE
380
     0
  9
$PSTYLEMODE
290
     1
  9
$FINGERPRINTGUID
  2
{E7F7769E-AACA-40AB-9EF3-61BBAFBCBA26}
  9
$VERSIONGUID
  2
{FAEB1C32-E019-11D5-929B-00C0DF256EC4}
  9
$EXTNAMES
290
     1
  9
$PSVPSCALE
 40
0.0
  9
$OLESTARTUP
290
     0
  9
$SORTENTS
280
   127
  9
$INDEXCTL
280
     0
  9
$HIDETEXT
280
     1
  9
$XCLIPFRAME
290
     0
  9
$HALOGAP
280
     0
  9
$OBSCOLOR
 70
   257
  9
$OBSLTYPE
280
     0
  9
$INTERSECTIONDISPLAY
280
     0
  9
$INTERSECTIONCOLOR
 70
   257
  9
$DIMASSOC
280
     2
  9
$PROJECTNAME
  1

  0
ENDSEC
  0
SECTION
  2
CLASSES
  0
CLASS
  1
ACDBDICTIONARYWDFLT
  2
AcDbDictionaryWithDefault
  3
ObjectDBX Classes
 90
        0
 91
        4
280
     0
281
     0
  0
CLASS
  1
VISUALSTYLE
  2
AcDbVisualStyle
  3
ObjectDBX Classes
 90
     4095
 91
        4
280
     0
281
     0
  0
ENDSEC
  0
SECTION
  2
TABLES
  0
TABLE
  2
VPORT
  5
8
330
0
100
AcDbSymbolTable
 70
     1
  0
VPORT
  5
29
330
8
100
AcDbSymbolTableRecord
100
AcDbViewportTableRecord
  2
*Active
 70
     0
 10
0.0
 20
0.0
 11
1.0
 21
1.0
 12
80.25
 22
106.4409457059851
 13
0.0
 23
0.0
 14
0.5
 24
0.5
 15
0.5
 25
0.5
 16
0.0
 26
0.0
 36
1.0
 17
0.0
 27
0.0
 37
0.0
 40
113.3818914119703
 41
0.8863849310366128
 42
50.0
 43
0.0
 44
0.0
 50
0.0
 51
0.0
 71
     0
 72
  1000
 73
     1
 74
     3
 75
     0
 76
     0
 77
     0
 78
     0
281
     0
 65
     1
110
0.0
120
0.0
130
0.0
111
1.0
121
0.0
131
0.0
112
0.0
122
1.0
132
0.0
 79
     0
146
0.0
  0
ENDTAB
  0
TABLE
  2
LTYPE
  5
5
330
0
100
AcDbSymbolTable
 70
     1
  0
LTYPE
  5
14
330
5
100
AcDbSymbolTableRecord
100
AcDbLinetypeTableRecord
  2
ByBlock
 70
     0
  3

 72
    65
 73
     0
 40
0.0
  0
LTYPE
  5
15
330
5
100
AcDbSymbolTableRecord
100
AcDbLinetypeTableRecord
  2
ByLayer
 70
     0
  3

 72
    65
 73
     0
 40
0.0
  0
LTYPE
  5
16
330
5
100
AcDbSymbolTableRecord
100
AcDbLinetypeTableRecord
  2
Continuous
 70
     0
  3
Solid line
 72
    65
 73
     0
 40
0.0
  0
ENDTAB
  0
TABLE
  2
LAYER
  5
2
330
0
100
AcDbSymbolTable
 70
     1
  0
LAYER
  5
10
330
2
100
AcDbSymbolTableRecord
100
AcDbLayerTableRecord
  2
0
 70
     0
 62
     7
  6
Continuous
370
    -3
390
F
  0
ENDTAB
  0
TABLE
  2
STYLE
  5
3
330
0
100
AcDbSymbolTable
 70
     1
  0
STYLE
  5
11
330
3
100
AcDbSymbolTableRecord
100
AcDbTextStyleTableRecord
  2
Standard
 70
     0
 40
0.0
 41
1.0
 50
0.0
 71
     0
 42
0.2
  3
txt
  4

  0
ENDTAB
  0
TABLE
  2
VIEW
  5
6
330
0
100
AcDbSymbolTable
 70
     0
  0
ENDTAB
  0
TABLE
  2
UCS
  5
7
330
0
100
AcDbSymbolTable
 70
     0
  0
ENDTAB
  0
TABLE
  2
APPID
  5
9
330
0
100
AcDbSymbolTable
 70
     1
  0
APPID
  5
12
330
9
100
AcDbSymbolTableRecord
100
AcDbRegAppTableRecord
  2
ACAD
 70
     0
  0
ENDTAB
  0
TABLE
  2
DIMSTYLE
  5
A
330
0
100
AcDbSymbolTable
 70
     1
100
AcDbDimStyleTable
  0
DIMSTYLE
105
27
330
A
100
AcDbSymbolTableRecord
100
AcDbDimStyleTableRecord
  2
Standard
 70
     0
340
11
  0
ENDTAB
  0
TABLE
  2
BLOCK_RECORD
  5
1
330
0
100
AcDbSymbolTable
 70
     1
  0
BLOCK_RECORD
  5
1F
330
1
100
AcDbSymbolTableRecord
100
AcDbBlockTableRecord
  2
*Model_Space
340
22
  0
BLOCK_RECORD
  5
1B
330
1
100
AcDbSymbolTableRecord
100
AcDbBlockTableRecord
  2
*Paper_Space
340
1E
  0
BLOCK_RECORD
  5
23
330
1
100
AcDbSymbolTableRecord
100
AcDbBlockTableRecord
  2
*Paper_Space0
340
26
  0
ENDTAB
  0
ENDSEC
  0
SECTION
  2
BLOCKS
  0
BLOCK
  5
20
330
1F
100
AcDbEntity
  8
0
100
AcDbBlockBegin
  2
*Model_Space
 70
     0
 10
0.0
 20
0.0
 30
0.0
  3
*Model_Space
  1

  0
ENDBLK
  5
21
330
1F
100
AcDbEntity
  8
0
100
AcDbBlockEnd
  0
BLOCK
  5
1C
330
1B
100
AcDbEntity
 67
     1
  8
0
100
AcDbBlockBegin
  2
*Paper_Space
 70
     0
 10
0.0
 20
0.0
 30
0.0
  3
*Paper_Space
  1

  0
ENDBLK
  5
1D
330
1B
100
AcDbEntity
 67
     1
  8
0
100
AcDbBlockEnd
  0
BLOCK
  5
24
330
23
100
AcDbEntity
  8
0
100
AcDbBlockBegin
  2
*Paper_Space0
 70
     0
 10
0.0
 20
0.0
 30
0.0
  3
*Paper_Space0
  1

  0
ENDBLK
  5
25
330
23
100
AcDbEntity
  8
0
100
AcDbBlockEnd
  0
ENDSEC
  0
SECTION
  2
ENTITIES
  0
HATCH
  5
20000
  8
0
100
AcDbEntity
100
AcDbHatch
 10
0
 20
0
 30
0
210
0
220
0
230
1
  2
SOLID
 70
1
 71
0
 91
1
 92
2
 72
0
 73
1
 93
14
 10
230870.77
 20
737068.439999999
 10
230862.12
 20
737064.119999999
 10
230815.9375
 20
737043.25
 10
230810.5938
 20
737094.875
 10
230820.9063
 20
737131.6875
 10
230824.2344
 20
737156.3125
 10
230831.7813
 20
737192.875
 10
230871.8281
 20
737193.5
 10
230912.609
 20
737199.245999999
 10
230948.77
 20
737199.560000001
 10
230941.47
 20
737139.310000001
 10
230927.2
 20
737105.689999999
 10
230915.72
 20
737098
 10
230870.77
 20
737068.439999999
 97
0
 75
0
 76
1
 98
0
  0
HATCH
  5
20001
  8
0
100
AcDbEntity
100
AcDbHatch
 10
0
 20
0
 30
0
210
0
220
0
230
1
  2
SOLID
 70
1
 71
0
 91
1
 92
2
 72
0
 73
1
 93
8
 10
230754.91
 20
737030.119999999
 10
230731.2656
 20
737021.875
 10
230727.3906
 20
737090.0625
 10
230726.1563
 20
737109.3125
 10
230810.5938
 20
737094.875
 10
230815.9375
 20
737043.25
 10
230760.48
 20
737031.560000001
 10
230754.91
 20
737030.119999999
 97
0
 75
0
 76
1
 98
0
  0
HATCH
  5
20002
  8
0
100
AcDbEntity
100
AcDbHatch
 10
0
 20
0
 30
0
210
0
220
0
230
1
  2
SOLID
 70
1
 71
0
 91
1
 92
2
 72
0
 73
1
 93
21
 10
230760.48
 20
737031.560000001
 10
230815.9375
 20
737043.25
 10
230862.12
 20
737064.119999999
 10
230870.77
 20
737068.439999999
 10
230915.72
 20
737098
 10
230927.2
 20
737105.689999999
 10
230929.27
 20
737102.550000001
 10
230923.31
 20
737098.619999999
 10
230897.39
 20
737081.439999999
 10
230871.17
 20
737064
 10
230843.98
 20
737051.380000001
 10
230818.44
 20
737039.75
 10
230816.34
 20
737039.060000001
 10
230808.23
 20
737037.439999999
 10
230786.8
 20
737032.880000001
 10
230757.92
 20
737026.939999999
 10
230745.89
 20
737022.310000001
 10
230731.7801
 20
737018.380000001
 10
230731.2656
 20
737021.875
 10
230754.91
 20
737030.119999999
 10
230760.48
 20
737031.560000001
 97
0
 75
0
 76
1
 98
0
  0
HATCH
  5
20003
  8
0
100
AcDbEntity
100
AcDbHatch
 10
0
 20
0
 30
0
210
0
220
0
230
1
  2
SOLID
 70
1
 71
0
 91
1
 92
2
 72
0
 73
1
 93
19
 10
230678.2345
 20
737128.6875
 10
230646.9219
 20
737133.0625
 10
230651.0406
 20
737160.581499999
 10
230651.0938
 20
737160.9375
 10
230670.1563
 20
737167.125
 10
230688.2188
 20
737176
 10
230703.3906
 20
737184.75
 10
230714.0781
 20
737192.9375
 10
230721.9063
 20
737200.75
 10
230738.5625
 20
737225.0625
 10
230831.7813
 20
737192.875
 10
230824.2344
 20
737156.3125
 10
230820.9063
 20
737131.6875
 10
230810.5938
 20
737094.875
 10
230726.1563
 20
737109.3125
 10
230689.0781
 20
737116
 10
230689.2813
 20
737121.6875
 10
230684.7969
 20
737127.6875
 10
230678.2345
 20
737128.6875
 97
0
 75
0
 76
1
 98
0
  0
HATCH
  5
20004
  8
0
100
AcDbEntity
100
AcDbHatch
 10
0
 20
0
 30
0
210
0
220
0
230
1
  2
SOLID
 70
1
 71
0
 91
1
 92
2
 72
0
 73
1
 93
6
 10
230513.3125
 20
736866.4375
 10
230468.1406
 20
736860.875
 10
230494.0001
 20
736923.0625
 10
230526.0156
 20
736926.1875
 10
230523.8906
 20
736913.1875
 10
230513.3125
 20
736866.4375
 97
0
 75
0
 76
1
 98
0
  0
HATCH
  5
20005
  8
0
100
AcDbEntity
100
AcDbHatch
 10
0
 20
0
 30
0
210
0
220
0
230
1
  2
SOLID
 70
1
 71
0
 91
1
 92
2
 72
0
 73
1
 93
11
 10
230525.5781
 20
736864.125
 10
230517.6406
 20
736866.3125
 10
230528.172
 20
736911.5
 10
230535.2031
 20
736979.4375
 10
230564.2031
 20
736993.8125
 10
230611.2656
 20
737001.8125
 10
230621.22
 20
737003.060000001
 10
230614.753
 20
736938.787
 10
230602.7001
 20
736821.5
 10
230532.922
 20
736861.75
 10
230525.5781
 20
736864.125
 97
0
 75
0
 76
1
 98
0
  0
HATCH
  5
20006
  8
0
100
AcDbEntity
100
AcDbHatch
 10
0
 20
0
 30
0
210
0
220
0
230
1
  2
SOLID
 70
1
 71
0
 91
1
 92
2
 72
0
 73
1
 93
67
 10
230721.6
 20
736946.991
 10
230721.3599
 20
736946.843800001
 10
230721.1158
 20
736946.703299999
 10
230720.8677
 20
736946.569800001
 10
230720.616
 20
736946.443299999
 10
230720.3609
 20
736946.323999999
 10
230720.1025
 20
736946.2119
 10
230719.841
 20
736946.107100001
 10
230719.5767
 20
736946.0097
 10
230719.3097
 20
736945.9198
 10
230719.0403
 20
736945.8375
 10
230718.7687
 20
736945.762800001
 10
230718.4951
 20
736945.695699999
 10
230718.2198
 20
736945.636399999
 10
230717.9427
 20
736945.584899999
 10
230717.6645
 20
736945.541200001
 10
230717.3851
 20
736945.5053
 10
230717.1049
 20
736945.477399999
 10
230716.8239
 20
736945.4573
 10
230716.5425
 20
736945.4452
 10
230716.2608
 20
736945.441
 10
230715.9791
 20
736945.444700001
 10
230715.6977
 20
736945.4563
 10
230715.4167
 20
736945.4759
 10
230715.1362
 20
736945.5034
 10
230714.8569
 20
736945.538799999
 10
230714.5785
 20
736945.582
 10
230714.3015
 20
736945.633099999
 10
230714.026
 20
736945.6919
 10
230713.7523
 20
736945.7585
 10
230713.4806
 20
736945.832699999
 10
230713.2111
 20
736945.9146
 10
230712.944
 20
736946.0041
 10
230712.6795
 20
736946.101
 10
230712.4178
 20
736946.2053
 10
230712.1592
 20
736946.317
 10
230711.9039
 20
736946.435900001
 10
230711.652
 20
736946.561899999
 10
230711.4037
 20
736946.695
 10
230711.1593
 20
736946.835100001
 10
230710.9189
 20
736946.981899999
 10
230710.6828
 20
736947.135500001
 10
230710.4511
 20
736947.295700001
 10
230710.2239
 20
736947.462300001
 10
230710.0016
 20
736947.635299999
 10
230709.7842
 20
736947.8144
 10
230709.572
 20
736947.999600001
 10
230709.365
 20
736948.1907
 10
230709.1636
 20
736948.387599999
 10
230708.9677
 20
736948.59
 10
230708.7776
 20
736948.797900001
 10
230708.5934
 20
736949.0111
 10
230708.4154
 20
736949.2294
 10
230708.2436
 20
736949.4526
 10
230708.0781
 20
736949.680500001
 10
230707.9191
 20
736949.913000001
 10
230707.7667
 20
736950.149900001
 10
230707.6211
 20
736950.391000001
 10
230706.282
 20
736952.677999999
 10
230693.7099
 20
736945.321
 10
230704.6101
 20
737011.939999999
 10
230731.7801
 20
737018.380000001
 10
230745.89
 20
737022.310000001
 10
230757.92
 20
737026.939999999
 10
230764.09
 20
737005.189999999
 10
230771.752
 20
736978.427999999
 10
230721.6
 20
736946.991
 97
0
 75
0
 76
1
 98
0
  0
HATCH
  5
20007
  8
0
100
AcDbEntity
100
AcDbHatch
 10
0
 20
0
 30
0
210
0
220
0
230
1
  2
SOLID
 70
1
 71
0
 91
1
 92
2
 72
0
 73
1
 93
124
 10
230736.1711
 20
736920.709000001
 10
230735.9372
 20
736920.556399999
 10
230735.7075
 20
736920.397299999
 10
230735.4825
 20
736920.231899999
 10
230735.2623
 20
736920.0602
 10
230735.0468
 20
736919.8825
 10
230734.8366
 20
736919.698799999
 10
230734.6313
 20
736919.509299999
 10
230734.4316
 20
736919.314200001
 10
230734.2374
 20
736919.113600001
 10
230734.0488
 20
736918.907600001
 10
230733.8661
 20
736918.6964
 10
230733.6893
 20
736918.4802
 10
230733.5186
 20
736918.259099999
 10
230733.3542
 20
736918.033399999
 10
230733.196
 20
736917.803200001
 10
230733.0445
 20
736917.568600001
 10
230732.8995
 20
736917.3299
 10
230732.7612
 20
736917.087300001
 10
230732.6299
 20
736916.8409
 10
230732.5053
 20
736916.5909
 10
230732.3878
 20
736916.3375
 10
230732.2776
 20
736916.0809
 10
230732.1745
 20
736915.8214
 10
230732.0786
 20
736915.5591
 10
230731.9902
 20
736915.294199999
 10
230731.9091
 20
736915.027000001
 10
230731.8356
 20
736914.7575
 10
230731.7696
 20
736914.486199999
 10
230731.7112
 20
736914.213099999
 10
230731.6603
 20
736913.9385
 10
230731.6174
 20
736913.6625
 10
230731.582
 20
736913.385500001
 10
230731.5544
 20
736913.1076
 10
230731.5346
 20
736912.829
 10
230731.5226
 20
736912.550000001
 10
230731.5183
 20
736912.2708
 10
230731.5219
 20
736911.9915
 10
230731.5333
 20
736911.7125
 10
230731.5524
 20
736911.433900001
 10
230731.5794
 20
736911.1559
 10
230731.614
 20
736910.878799999
 10
230731.6564
 20
736910.6028
 10
230731.7064
 20
736910.328
 10
230731.7643
 20
736910.0548
 10
230731.8296
 20
736909.783299999
 10
230731.9025
 20
736909.513699999
 10
230731.9829
 20
736909.246200001
 10
230732.0708
 20
736908.9811
 10
230732.166
 20
736908.718599999
 10
230732.2685
 20
736908.458799999
 10
230732.3782
 20
736908.202
 10
230732.495
 20
736907.9483
 10
230732.619
 20
736907.698100001
 10
230732.7497
 20
736907.451300001
 10
230732.8875
 20
736907.2083
 10
230736.4671
 20
736901.091
 10
230714.7521
 20
736888.385
 10
230684.7051
 20
736940.051999999
 10
230693.7099
 20
736945.321
 10
230706.282
 20
736952.677999999
 10
230707.6211
 20
736950.391000001
 10
230707.7667
 20
736950.149900001
 10
230707.9191
 20
736949.913000001
 10
230708.0781
 20
736949.680500001
 10
230708.2436
 20
736949.4526
 10
230708.4154
 20
736949.2294
 10
230708.5934
 20
736949.0111
 10
230708.7776
 20
736948.797900001
 10
230708.9677
 20
736948.59
 10
230709.1636
 20
736948.387599999
 10
230709.365
 20
736948.1907
 10
230709.572
 20
736947.999600001
 10
230709.7842
 20
736947.8144
 10
230710.0016
 20
736947.635299999
 10
230710.2239
 20
736947.462300001
 10
230710.4511
 20
736947.295700001
 10
230710.6828
 20
736947.135500001
 10
230710.9189
 20
736946.981899999
 10
230711.1593
 20
736946.835100001
 10
230711.4037
 20
736946.695
 10
230711.652
 20
736946.561899999
 10
230711.9039
 20
736946.435900001
 10
230712.1592
 20
736946.317
 10
230712.4178
 20
736946.2053
 10
230712.6795
 20
736946.101
 10
230712.944
 20
736946.0041
 10
230713.2111
 20
736945.9146
 10
230713.4806
 20
736945.832699999
 10
230713.7523
 20
736945.7585
 10
230714.026
 20
736945.6919
 10
230714.3015
 20
736945.633099999
 10
230714.5785
 20
736945.582
 10
230714.8569
 20
736945.538799999
 10
230715.1362
 20
736945.5034
 10
230715.4167
 20
736945.4759
 10
230715.6977
 20
736945.4563
 10
230715.9791
 20
736945.444700001
 10
230716.2608
 20
736945.441
 10
230716.5425
 20
736945.4452
 10
230716.8239
 20
736945.4573
 10
230717.1049
 20
736945.477399999
 10
230717.3851
 20
736945.5053
 10
230717.6645
 20
736945.541200001
 10
230717.9427
 20
736945.584899999
 10
230718.2198
 20
736945.636399999
 10
230718.4951
 20
736945.695699999
 10
230718.7687
 20
736945.762800001
 10
230719.0403
 20
736945.8375
 10
230719.3097
 20
736945.9198
 10
230719.5767
 20
736946.0097
 10
230719.841
 20
736946.107100001
 10
230720.1025
 20
736946.2119
 10
230720.3609
 20
736946.323999999
 10
230720.616
 20
736946.443299999
 10
230720.8677
 20
736946.569800001
 10
230721.1158
 20
736946.703299999
 10
230721.3599
 20
736946.843800001
 10
230721.6
 20
736946.991
 10
230771.752
 20
736978.427999999
 10
230780.0001
 20
736949.619999999
 10
230780.285
 20
736948.369999999
 10
230743.2199
 20
736924.880000001
 10
230736.1711
 20
736920.709000001
 97
0
 75
0
 76
1
 98
0
  0
HATCH
  5
20008
  8
0
100
AcDbEntity
100
AcDbHatch
 10
0
 20
0
 30
0
210
0
220
0
230
1
  2
SOLID
 70
1
 71
0
 91
1
 92
2
 72
0
 73
1
 93
75
 10
230739.7
 20
736809.439999999
 10
230754.42
 20
736765.939999999
 10
230756.8
 20
736759
 10
230736.88
 20
736760.75
 10
230688.908
 20
736771.276000001
 10
230661.049
 20
736782.764
 10
230602.7001
 20
736821.5
 10
230614.753
 20
736938.787
 10
230621.22
 20
737003.060000001
 10
230637.9401
 20
737004.939999999
 10
230704.6101
 20
737011.939999999
 10
230693.7099
 20
736945.321
 10
230684.7051
 20
736940.051999999
 10
230714.7521
 20
736888.385
 10
230736.4671
 20
736901.091
 10
230732.8875
 20
736907.2083
 10
230732.7497
 20
736907.451300001
 10
230732.619
 20
736907.698100001
 10
230732.495
 20
736907.9483
 10
230732.3782
 20
736908.202
 10
230732.2685
 20
736908.458799999
 10
230732.166
 20
736908.718599999
 10
230732.0708
 20
736908.9811
 10
230731.9829
 20
736909.246200001
 10
230731.9025
 20
736909.513699999
 10
230731.8296
 20
736909.783299999
 10
230731.7643
 20
736910.0548
 10
230731.7064
 20
736910.328
 10
230731.6564
 20
736910.6028
 10
230731.614
 20
736910.878799999
 10
230731.5794
 20
736911.1559
 10
230731.5524
 20
736911.433900001
 10
230731.5333
 20
736911.7125
 10
230731.5219
 20
736911.9915
 10
230731.5183
 20
736912.2708
 10
230731.5226
 20
736912.550000001
 10
230731.5346
 20
736912.829
 10
230731.5544
 20
736913.1076
 10
230731.582
 20
736913.385500001
 10
230731.6174
 20
736913.6625
 10
230731.6603
 20
736913.9385
 10
230731.7112
 20
736914.213099999
 10
230731.7696
 20
736914.486199999
 10
230731.8356
 20
736914.7575
 10
230731.9091
 20
736915.027000001
 10
230731.9902
 20
736915.294199999
 10
230732.0786
 20
736915.5591
 10
230732.1745
 20
736915.8214
 10
230732.2776
 20
736916.0809
 10
230732.3878
 20
736916.3375
 10
230732.5053
 20
736916.5909
 10
230732.6299
 20
736916.8409
 10
230732.7612
 20
736917.087300001
 10
230732.8995
 20
736917.3299
 10
230733.0445
 20
736917.568600001
 10
230733.196
 20
736917.803200001
 10
230733.3542
 20
736918.033399999
 10
230733.5186
 20
736918.259099999
 10
230733.6893
 20
736918.4802
 10
230733.8661
 20
736918.6964
 10
230734.0488
 20
736918.907600001
 10
230734.2374
 20
736919.113600001
 10
230734.4316
 20
736919.314200001
 10
230734.6313
 20
736919.509299999
 10
230734.8366
 20
736919.698799999
 10
230735.0468
 20
736919.8825
 10
230735.2623
 20
736920.0602
 10
230735.4825
 20
736920.231899999
 10
230735.7075
 20
736920.397299999
 10
230735.9372
 20
736920.556399999
 10
230736.1711
 20
736920.709000001
 10
230743.2199
 20
736924.880000001
 10
230744.9401
 20
736851.060000001
 10
230742.7801
 20
736833.119999999
 10
230739.7
 20
736809.439999999
 97
0
 75
0
 76
1
 98
0
  0
HATCH
  5
20009
  8
0
100
AcDbEntity
100
AcDbHatch
 10
0
 20
0
 30
0
210
0
220
0
230
1
  2
SOLID
 70
1
 71
0
 91
1
 92
2
 72
0
 73
1
 93
50
 10
230340.5313
 20
736851.125
 10
230336.2345
 20
736856.1875
 10
230303.4589
 20
736892.829700001
 10
230306.0132
 20
736895.926899999
 10
230313.3281
 20
736887.5
 10
230339.4219
 20
736858.1875
 10
230342.2188
 20
736856.125
 10
230418.3126
 20
736867.875
 10
230432.6406
 20
736867.5625
 10
230468.1406
 20
736860.875
 10
230513.3125
 20
736866.4375
 10
230523.8906
 20
736913.1875
 10
230526.0156
 20
736926.1875
 10
230531.3438
 20
736981.5625
 10
230563.0781
 20
736997.6875
 10
230611.2813
 20
737005.6875
 10
230638.6563
 20
737009
 10
230704.9376
 20
737016.0625
 10
230731.2656
 20
737021.875
 10
230731.7801
 20
737018.380000001
 10
230704.6101
 20
737011.939999999
 10
230637.9401
 20
737004.939999999
 10
230621.22
 20
737003.060000001
 10
230611.2656
 20
737001.8125
 10
230564.2031
 20
736993.8125
 10
230535.2031
 20
736979.4375
 10
230528.172
 20
736911.5
 10
230517.6406
 20
736866.3125
 10
230525.5781
 20
736864.125
 10
230532.922
 20
736861.75
 10
230602.7001
 20
736821.5
 10
230661.049
 20
736782.764
 10
230688.908
 20
736771.276000001
 10
230736.88
 20
736760.75
 10
230756.8
 20
736759
 10
230757.2186
 20
736757.76
 10
230758.1968
 20
736754.8619
 10
230736.2738
 20
736756.787799999
 10
230734.4299
 20
736757.192500001
 10
230690.0121
 20
736766.9386
 10
230687.7078
 20
736767.4442
 10
230659.1625
 20
736779.2152
 10
230599.6043
 20
736818.6679
 10
230533.3751
 20
736857.125
 10
230515.797
 20
736862.3125
 10
230466.3125
 20
736856.5625
 10
230432.2031
 20
736862.875
 10
230418.75
 20
736863.875
 10
230343.2813
 20
736851.3125
 10
230340.5313
 20
736851.125
 97
0
 75
0
 76
1
 98
0
  0
HATCH
  5
2000A
  8
0
100
AcDbEntity
100
AcDbHatch
 10
0
 20
0
 30
0
210
0
220
0
230
1
  2
SOLID
 70
1
 71
0
 91
1
 92
2
 72
0
 73
1
 93
38
 10
230353.0469
 20
736929.25
 10
230380.2501
 20
736946.4375
 10
230396.0001
 20
736958.125
 10
230398.3594
 20
736960.6875
 10
230406.3126
 20
736969.0625
 10
230414.3751
 20
736980.0625
 10
230433.5938
 20
737014.375
 10
230451.1876
 20
737035.75
 10
230470.4063
 20
737056.75
 10
230519.0938
 20
737105.6875
 10
230531.3281
 20
737117.5
 10
230545.4845
 20
737127.1875
 10
230559.5781
 20
737133.4375
 10
230566.4845
 20
737135.5625
 10
230651.0938
 20
737160.9375
 10
230651.0406
 20
737160.581499999
 10
230646.9219
 20
737133.0625
 10
230678.2345
 20
737128.6875
 10
230684.7969
 20
737127.6875
 10
230689.2813
 20
737121.6875
 10
230689.0781
 20
737116
 10
230686.2813
 20
737081.5
 10
230637.5781
 20
737070.875
 10
230608.6406
 20
737066.375
 10
230611.2813
 20
737005.6875
 10
230563.0781
 20
736997.6875
 10
230531.3438
 20
736981.5625
 10
230526.0156
 20
736926.1875
 10
230494.0001
 20
736923.0625
 10
230468.1406
 20
736860.875
 10
230432.6406
 20
736867.5625
 10
230436.2031
 20
736876.0625
 10
230372.3751
 20
736906
 10
230342.2188
 20
736856.125
 10
230339.4219
 20
736858.1875
 10
230313.3281
 20
736887.5
 10
230361.7031
 20
736916.5625
 10
230353.0469
 20
736929.25
 97
0
 75
0
 76
1
 98
0
  0
HATCH
  5
2000B
  8
0
100
AcDbEntity
100
AcDbHatch
 10
0
 20
0
 30
0
210
0
220
0
230
1
  2
SOLID
 70
1
 71
0
 91
1
 92
2
 72
0
 73
1
 93
6
 10
230418.3126
 20
736867.875
 10
230342.2188
 20
736856.125
 10
230372.3751
 20
736906
 10
230436.2031
 20
736876.0625
 10
230432.6406
 20
736867.5625
 10
230418.3126
 20
736867.875
 97
0
 75
0
 76
1
 98
0
  0
HATCH
  5
2000C
  8
0
100
AcDbEntity
100
AcDbHatch
 10
0
 20
0
 30
0
210
0
220
0
230
1
  2
SOLID
 70
1
 71
0
 91
1
 92
2
 72
0
 73
1
 93
5
 10
230611.2813
 20
737005.6875
 10
230608.6406
 20
737066.375
 10
230637.5781
 20
737070.875
 10
230638.6563
 20
737009
 10
230611.2813
 20
737005.6875
 97
0
 75
0
 76
1
 98
0
  0
HATCH
  5
2000D
  8
0
100
AcDbEntity
100
AcDbHatch
 10
0
 20
0
 30
0
210
0
220
0
230
1
  2
SOLID
 70
1
 71
0
 91
1
 92
2
 72
0
 73
1
 93
9
 10
230704.9376
 20
737016.0625
 10
230638.6563
 20
737009
 10
230637.5781
 20
737070.875
 10
230686.2813
 20
737081.5
 10
230689.0781
 20
737116
 10
230726.1563
 20
737109.3125
 10
230727.3906
 20
737090.0625
 10
230731.2656
 20
737021.875
 10
230704.9376
 20
737016.0625
 97
0
 75
0
 76
1
 98
0
  0
HATCH
  5
2000E
  8
0
100
AcDbEntity
100
AcDbHatch
 10
0
 20
0
 30
0
210
0
220
0
230
1
  2
SOLID
 70
1
 71
0
 91
1
 92
2
 72
0
 73
1
 93
15
 10
230786.8
 20
737032.880000001
 10
230808.23
 20
737037.439999999
 10
230816.34
 20
737039.060000001
 10
230818.44
 20
737039.75
 10
230843.98
 20
737051.380000001
 10
230871.17
 20
737064
 10
230897.39
 20
737081.439999999
 10
230923.31
 20
737098.619999999
 10
230929.27
 20
737102.550000001
 10
230940.75
 20
737110.119999999
 10
230949.303
 20
737089.721999999
 10
230771.752
 20
736978.427999999
 10
230764.09
 20
737005.189999999
 10
230757.92
 20
737026.939999999
 10
230786.8
 20
737032.880000001
 97
0
 75
0
 76
1
 98
0
  0
HATCH
  5
2000F
  8
0
100
AcDbEntity
100
AcDbHatch
 10
0
 20
0
 30
0
210
0
220
0
230
1
  2
SOLID
 70
1
 71
0
 91
1
 92
2
 72
0
 73
1
 93
9
 10
230780.0001
 20
736949.619999999
 10
230771.752
 20
736978.427999999
 10
230949.303
 20
737089.721999999
 10
230953.17
 20
737080.5
 10
230957.2422
 20
737070.596000001
 10
230960.9378
 20
737061.607899999
 10
230930.708
 20
737042.66
 10
230780.285
 20
736948.369999999
 10
230780.0001
 20
736949.619999999
 97
0
 75
0
 76
1
 98
0
  0
ENDSEC
  0
SECTION
  2
OBJECTS
  0
DICTIONARY
  5
C
330
0
100
AcDbDictionary
281
     1
  3
ACAD_GROUP
350
D
  3
ACAD_LAYOUT
350
1A
  3
ACAD_MLEADERSTYLE
350
43
  3
ACAD_MLINESTYLE
350
17
  3
ACAD_PLOTSETTINGS
350
19
  3
ACAD_PLOTSTYLENAME
350
E
  3
ACAD_TABLESTYLE
350
42
  3
ACAD_VISUALSTYLE
350
2A
  0
DICTIONARY
  5
D
102
{ACAD_REACTORS
330
C
102
}
330
C
100
AcDbDictionary
281
     1
  0
DICTIONARY
  5
1A
102
{ACAD_REACTORS
330
C
102
}
330
C
100
AcDbDictionary
281
     1
  3
Layout1
350
1E
  3
Layout2
350
26
  3
Model
350
22
  0
DICTIONARY
  5
43
102
{ACAD_REACTORS
330
C
102
}
330
C
100
AcDbDictionary
281
     1
  0
DICTIONARY
  5
17
102
{ACAD_REACTORS
330
C
102
}
330
C
100
AcDbDictionary
281
     1
  3
Standard
350
18
  0
DICTIONARY
  5
19
102
{ACAD_REACTORS
330
C
102
}
330
C
100
AcDbDictionary
281
     1
  0
ACDBDICTIONARYWDFLT
  5
E
102
{ACAD_REACTORS
330
C
102
}
330
C
100
AcDbDictionary
281
     1
  3
Normal
350
F
100
AcDbDictionaryWithDefault
340
F
  0
DICTIONARY
  5
42
102
{ACAD_REACTORS
330
C
102
}
330
C
100
AcDbDictionary
281
     1
  0
DICTIONARY
  5
2A
102
{ACAD_REACTORS
330
C
102
}
330
C
100
AcDbDictionary
281
     1
  3
2dWireframe
350
2F
  3
3D Hidden
350
31
  3
3dWireframe
350
30
  3
Basic
350
32
  3
Brighten
350
36
  3
ColorChange
350
3A
  3
Conceptual
350
34
  3
Dim
350
35
  3
Facepattern
350
39
  3
Flat
350
2B
  3
FlatWithEdges
350
2C
  3
Gouraud
350
2D
  3
GouraudWithEdges
350
2E
  3
Linepattern
350
38
  3
Realistic
350
33
  3
Thicken
350
37
  0
LAYOUT
  5
1E
102
{ACAD_REACTORS
330
1A
102
}
330
1A
100
AcDbPlotSettings
  1

  2
none_device
  4

  6

 40
0.0
 41
0.0
 42
0.0
 43
0.0
 44
0.0
 45
0.0
 46
0.0
 47
0.0
 48
0.0
 49
0.0
140
0.0
141
0.0
142
1.0
143
1.0
 70
   688
 72
     0
 73
     0
 74
     5
  7

 75
    16
 76
     0
 77
     2
 78
   300
147
1.0
148
0.0
149
0.0
100
AcDbLayout
  1
Layout1
 70
     1
 71
     1
 10
0.0
 20
0.0
 11
12.0
 21
9.0
 12
0.0
 22
0.0
 32
0.0
 14
1.000000000000000E+20
 24
1.000000000000000E+20
 34
1.000000000000000E+20
 15
-1.000000000000000E+20
 25
-1.000000000000000E+20
 35
-1.000000000000000E+20
146
0.0
 13
0.0
 23
0.0
 33
0.0
 16
1.0
 26
0.0
 36
0.0
 17
0.0
 27
1.0
 37
0.0
 76
     0
330
1B
  0
LAYOUT
  5
26
102
{ACAD_REACTORS
330
1A
102
}
330
1A
100
AcDbPlotSettings
  1

  2
none_device
  4

  6

 40
0.0
 41
0.0
 42
0.0
 43
0.0
 44
0.0
 45
0.0
 46
0.0
 47
0.0
 48
0.0
 49
0.0
140
0.0
141
0.0
142
1.0
143
1.0
 70
   688
 72
     0
 73
     0
 74
     5
  7

 75
    16
 76
     0
 77
     2
 78
   300
147
1.0
148
0.0
149
0.0
100
AcDbLayout
  1
Layout2
 70
     1
 71
     2
 10
0.0
 20
0.0
 11
0.0
 21
0.0
 12
0.0
 22
0.0
 32
0.0
 14
0.0
 24
0.0
 34
0.0
 15
0.0
 25
0.0
 35
0.0
146
0.0
 13
0.0
 23
0.0
 33
0.0
 16
1.0
 26
0.0
 36
0.0
 17
0.0
 27
1.0
 37
0.0
 76
     0
330
23
  0
LAYOUT
  5
22
102
{ACAD_REACTORS
330
1A
102
}
330
1A
100
AcDbPlotSettings
  1

  2
none_device
  4

  6

 40
0.0
 41
0.0
 42
0.0
 43
0.0
 44
0.0
 45
0.0
 46
0.0
 47
0.0
 48
0.0
 49
0.0
140
0.0
141
0.0
142
1.0
143
1.0
 70
  1712
 72
     0
 73
     0
 74
     0
  7

 75
     0
 76
     0
 77
     2
 78
   300
147
1.0
148
0.0
149
0.0
100
AcDbLayout
  1
Model
 70
     1
 71
     0
 10
0.0
 20
0.0
 11
12.0
 21
9.0
 12
0.0
 22
0.0
 32
0.0
 14
30.0
 24
49.75
 34
0.0
 15
130.5
 25
163.1318914119703
 35
0.0
146
0.0
 13
0.0
 23
0.0
 33
0.0
 16
1.0
 26
0.0
 36
0.0
 17
0.0
 27
1.0
 37
0.0
 76
     0
330
1F
331
29
  0
MLINESTYLE
  5
18
102
{ACAD_REACTORS
330
17
102
}
330
17
100
AcDbMlineStyle
  2
Standard
 70
     0
  3

 62
   256
 51
90.0
 52
90.0
 71
     2
 49
0.5
 62
   256
  6
BYLAYER
 49
-0.5
 62
   256
  6
BYLAYER
  0
ACDBPLACEHOLDER
  5
F
102
{ACAD_REACTORS
330
E
102
}
330
E
  0
VISUALSTYLE
  5
2F
102
{ACAD_REACTORS
330
2A
102
}
330
2A
100
AcDbVisualStyle
  2
2dWireframe
 70
     4
 71
     0
 72
     2
 73
     0
 90
        0
 40
-0.6
 41
-30.0
 62
     5
 63
     7
421
 16777215
 74
     1
 91
        4
 64
     7
 65
   257
 75
     1
175
     1
 42
1.0
 92
        0
 66
   257
 43
1.0
 76
     1
 77
     6
 78
     2
 67
     7
 79
     5
170
     0
171
     0
290
     0
174
     0
 93
        1
 44
0.0
173
     0
291
     0
 45
0.0
1001
ACAD
1000
AcDbSavedByObjectVersion
1070
     0
  0
VISUALSTYLE
  5
31
102
{ACAD_REACTORS
330
2A
102
}
330
2A
100
AcDbVisualStyle
  2
3D Hidden
 70
     6
 71
     1
 72
     2
 73
     2
 90
        0
 40
-0.6
 41
-30.0
 62
     5
 63
     7
421
 16777215
 74
     2
 91
        2
 64
     7
 65
   257
 75
     2
175
     1
 42
40.0
 92
        0
 66
   257
 43
1.0
 76
     1
 77
     6
 78
     2
 67
     7
 79
     3
170
     0
171
     0
290
     0
174
     0
 93
        1
 44
0.0
173
     0
291
     0
 45
0.0
1001
ACAD
1000
AcDbSavedByObjectVersion
1070
     0
  0
VISUALSTYLE
  5
30
102
{ACAD_REACTORS
330
2A
102
}
330
2A
100
AcDbVisualStyle
  2
3dWireframe
 70
     5
 71
     0
 72
     2
 73
     0
 90
        0
 40
-0.6
 41
-30.0
 62
     5
 63
     7
421
 16777215
 74
     1
 91
        4
 64
     7
 65
   257
 75
     1
175
     1
 42
1.0
 92
        0
 66
   257
 43
1.0
 76
     1
 77
     6
 78
     2
 67
     7
 79
     5
170
     0
171
     0
290
     0
174
     0
 93
        1
 44
0.0
173
     0
291
     0
 45
0.0
1001
ACAD
1000
AcDbSavedByObjectVersion
1070
     0
  0
VISUALSTYLE
  5
32
102
{ACAD_REACTORS
330
2A
102
}
330
2A
100
AcDbVisualStyle
  2
Basic
 70
     7
 71
     1
 72
     0
 73
     1
 90
        0
 40
-0.6
 41
-30.0
 62
     5
 63
     7
421
 16777215
 74
     0
 91
        4
 64
     7
 65
   257
 75
     1
175
     1
 42
1.0
 92
        8
 66
     7
 43
1.0
 76
     1
 77
     6
 78
     2
 67
     7
 79
     5
170
     0
171
     0
290
     0
174
     0
 93
        1
 44
0.0
173
     0
291
     1
 45
0.0
1001
ACAD
1000
AcDbSavedByObjectVersion
1070
     0
  0
VISUALSTYLE
  5
36
102
{ACAD_REACTORS
330
2A
102
}
330
2A
100
AcDbVisualStyle
  2
Brighten
 70
    12
 71
     2
 72
     2
 73
     0
 90
        0
 40
-0.6
 41
-30.0
 62
     5
 63
     7
421
 16777215
 74
     1
 91
        4
 64
     7
 65
   257
 75
     1
175
     1
 42
1.0
 92
        8
 66
     7
 43
1.0
 76
     1
 77
     6
 78
     2
 67
     7
 79
     5
170
     0
171
     0
290
     0
174
     0
 93
        1
 44
50.0
173
     0
291
     1
 45
0.0
1001
ACAD
1000
AcDbSavedByObjectVersion
1070
     0
  0
VISUALSTYLE
  5
3A
102
{ACAD_REACTORS
330
2A
102
}
330
2A
100
AcDbVisualStyle
  2
ColorChange
 70
    16
 71
     2
 72
     2
 73
     3
 90
        0
 40
-0.6
 41
-30.0
 62
     5
 63
     8
421
  8421504
 74
     1
 91
        4
 64
     7
 65
   257
 75
     1
175
     1
 42
1.0
 92
        8
 66
     8
424
  8421504
 43
1.0
 76
     1
 77
     6
 78
     2
 67
     7
 79
     5
170
     0
171
     0
290
     0
174
     0
 93
        1
 44
0.0
173
     0
291
     1
 45
0.0
1001
ACAD
1000
AcDbSavedByObjectVersion
1070
     0
  0
VISUALSTYLE
  5
34
102
{ACAD_REACTORS
330
2A
102
}
330
2A
100
AcDbVisualStyle
  2
Conceptual
 70
     9
 71
     3
 72
     2
 73
     0
 90
        0
 40
-0.6
 41
-30.0
 62
     5
 63
     7
421
 16777215
 74
     2
 91
        2
 64
     7
 65
   257
 75
     1
175
     1
 42
40.0
 92
        8
 66
     7
 43
1.0
 76
     1
 77
     6
 78
     2
 67
     7
 79
     3
170
     0
171
     0
290
     0
174
     0
 93
        1
 44
0.0
173
     0
291
     0
 45
0.0
1001
ACAD
1000
AcDbSavedByObjectVersion
1070
     0
  0
VISUALSTYLE
  5
35
102
{ACAD_REACTORS
330
2A
102
}
330
2A
100
AcDbVisualStyle
  2
Dim
 70
    11
 71
     2
 72
     2
 73
     0
 90
        0
 40
-0.6
 41
-30.0
 62
     5
 63
     7
421
 16777215
 74
     1
 91
        4
 64
     7
 65
   257
 75
     1
175
     1
 42
1.0
 92
        8
 66
     7
 43
1.0
 76
     1
 77
     6
 78
     2
 67
     7
 79
     5
170
     0
171
     0
290
     0
174
     0
 93
        1
 44
-50.0
173
     0
291
     1
 45
0.0
1001
ACAD
1000
AcDbSavedByObjectVersion
1070
     0
  0
VISUALSTYLE
  5
39
102
{ACAD_REACTORS
330
2A
102
}
330
2A
100
AcDbVisualStyle
  2
Facepattern
 70
    15
 71
     2
 72
     2
 73
     0
 90
        0
 40
-0.6
 41
-30.0
 62
     5
 63
     7
421
 16777215
 74
     1
 91
        4
 64
     7
 65
   257
 75
     1
175
     1
 42
1.0
 92
        8
 66
     7
 43
1.0
 76
     1
 77
     6
 78
     2
 67
     7
 79
     5
170
     0
171
     0
290
     0
174
     0
 93
        1
 44
0.0
173
     0
291
     1
 45
0.0
1001
ACAD
1000
AcDbSavedByObjectVersion
1070
     0
  0
VISUALSTYLE
  5
2B
102
{ACAD_REACTORS
330
2A
102
}
330
2A
100
AcDbVisualStyle
  2
Flat
 70
     0
 71
     2
 72
     1
 73
     1
 90
        2
 40
-0.6
 41
30.0
 62
     5
 63
     7
421
 16777215
 74
     0
 91
        4
 64
     7
 65
   257
 75
     1
175
     1
 42
1.0
 92
        8
 66
     7
 43
1.0
 76
     1
 77
     6
 78
     2
 67
     7
 79
     5
170
     0
171
     0
290
     0
174
     0
 93
       13
 44
0.0
173
     0
291
     1
 45
0.0
1001
ACAD
1000
AcDbSavedByObjectVersion
1070
     0
  0
VISUALSTYLE
  5
2C
102
{ACAD_REACTORS
330
2A
102
}
330
2A
100
AcDbVisualStyle
  2
FlatWithEdges
 70
     1
 71
     2
 72
     1
 73
     1
 90
        2
 40
-0.6
 41
30.0
 62
     5
 63
     7
421
 16777215
 74
     1
 91
        4
 64
     7
 65
   257
 75
     1
175
     1
 42
1.0
 92
        0
 66
   257
 43
1.0
 76
     1
 77
     6
 78
     2
 67
     7
 79
     5
170
     0
171
     0
290
     0
174
     0
 93
       13
 44
0.0
173
     0
291
     1
 45
0.0
1001
ACAD
1000
AcDbSavedByObjectVersion
1070
     0
  0
VISUALSTYLE
  5
2D
102
{ACAD_REACTORS
330
2A
102
}
330
2A
100
AcDbVisualStyle
  2
Gouraud
 70
     2
 71
     2
 72
     2
 73
     1
 90
        2
 40
-0.6
 41
30.0
 62
     5
 63
     7
421
 16777215
 74
     0
 91
        4
 64
     7
 65
   257
 75
     1
175
     1
 42
1.0
 92
        0
 66
     7
 43
1.0
 76
     1
 77
     6
 78
     2
 67
     7
 79
     5
170
     0
171
     0
290
     0
174
     0
 93
       13
 44
0.0
173
     0
291
     1
 45
0.0
1001
ACAD
1000
AcDbSavedByObjectVersion
1070
     0
  0
VISUALSTYLE
  5
2E
102
{ACAD_REACTORS
330
2A
102
}
330
2A
100
AcDbVisualStyle
  2
GouraudWithEdges
 70
     3
 71
     2
 72
     2
 73
     1
 90
        2
 40
-0.6
 41
30.0
 62
     5
 63
     7
421
 16777215
 74
     1
 91
        4
 64
     7
 65
   257
 75
     1
175
     1
 42
1.0
 92
        0
 66
   257
 43
1.0
 76
     1
 77
     6
 78
     2
 67
     7
 79
     5
170
     0
171
     0
290
     0
174
     0
 93
       13
 44
0.0
173
     0
291
     1
 45
0.0
1001
ACAD
1000
AcDbSavedByObjectVersion
1070
     0
  0
VISUALSTYLE
  5
38
102
{ACAD_REACTORS
330
2A
102
}
330
2A
100
AcDbVisualStyle
  2
Linepattern
 70
    14
 71
     2
 72
     2
 73
     0
 90
        0
 40
-0.6
 41
-30.0
 62
     5
 63
     7
421
 16777215
 74
     1
 91
        4
 64
     7
 65
   257
 75
     7
175
     7
 42
1.0
 92
        8
 66
     7
 43
1.0
 76
     1
 77
     6
 78
     2
 67
     7
 79
     5
170
     0
171
     0
290
     0
174
     0
 93
        1
 44
0.0
173
     0
291
     1
 45
0.0
1001
ACAD
1000
AcDbSavedByObjectVersion
1070
     0
  0
VISUALSTYLE
  5
33
102
{ACAD_REACTORS
330
2A
102
}
330
2A
100
AcDbVisualStyle
  2
Realistic
 70
     8
 71
     2
 72
     2
 73
     0
 90
        0
 40
-0.6
 41
-30.0
 62
     5
 63
     7
421
 16777215
 74
     1
 91
        0
 64
     7
 65
   257
 75
     1
175
     1
 42
1.0
 92
        8
 66
     8
424
  7895160
 43
1.0
 76
     1
 77
     6
 78
     2
 67
     7
 79
     5
170
     0
171
     0
290
     0
174
     0
 93
       13
 44
0.0
173
     0
291
     0
 45
0.0
1001
ACAD
1000
AcDbSavedByObjectVersion
1070
     0
  0
VISUALSTYLE
  5
37
102
{ACAD_REACTORS
330
2A
102
}
330
2A
100
AcDbVisualStyle
  2
Thicken
 70
    13
 71
     2
 72
     2
 73
     0
 90
        0
 40
-0.6
 41
-30.0
 62
     5
 63
     7
421
 16777215
 74
     1
 91
        4
 64
     7
 65
   257
 75
     1
175
     1
 42
1.0
 92
       12
 66
     7
 43
1.0
 76
     1
 77
     6
 78
     2
 67
     7
 79
     5
170
     0
171
     0
290
     0
174
     0
 93
        1
 44
0.0
173
     0
291
     1
 45
0.0
1001
ACAD
1000
AcDbSavedByObjectVersion
1070
     0
  0
ENDSEC
  0
EOF
